<?xml version="1.0" standalone="no"?>
<!DOCTYPE svg PUBLIC "-//W3C//DTD SVG 20010904//EN" "http://www.w3.org/TR/2001/REC-SVG-20010904/DTD/svg10.dtd">
<svg version="1.0" xmlns="http://www.w3.org/2000/svg" width="512.000000pt" height="512.000000pt"
	viewBox="0 0 512.000000 512.000000" preserveAspectRatio="xMidYMid meet">

	<g transform="translate(0.000000,512.000000) scale(0.100000,-0.100000)" fill="rgba(39,44,49,0.692)" stroke="none">
		<path d="M2233 4226 c-171 -44 -250 -83 -333 -166 -110 -109 -175 -267 -169
-412 2 -56 1 -59 -32 -83 -43 -32 -86 -96 -100 -149 -13 -49 -7 -109 22 -216
35 -130 108 -208 216 -231 50 -10 68 -8 165 15 l108 25 64 -34 c120 -67 236
-86 360 -60 143 30 263 107 335 217 22 34 45 68 49 73 5 6 52 21 106 34 116
28 178 65 220 135 39 63 46 153 20 258 -24 100 -38 132 -81 179 -45 50 -99 78
-164 86 -49 6 -49 6 -85 74 -44 83 -142 180 -230 226 -136 72 -269 80 -471 29z
m389 -133 c81 -38 155 -104 191 -172 l27 -49 -41 -10 c-37 -9 -45 -8 -87 19
-107 68 -260 95 -385 70 -131 -28 -262 -119 -338 -236 -28 -44 -49 -65 -67
-70 -15 -3 -35 -8 -44 -11 -41 -12 -11 158 43 253 60 105 156 165 344 214 152
40 260 38 357 -8z m-21 -300 c82 -41 152 -110 192 -193 27 -55 33 -78 35 -152
6 -147 -43 -252 -157 -338 -72 -54 -138 -74 -243 -74 -82 0 -92 2 -165 39
l-78 40 -57 235 -58 235 17 39 c23 51 98 128 154 157 78 40 120 49 210 46 73
-3 96 -8 150 -34z m449 -38 c47 -24 68 -61 91 -160 l21 -94 -22 -47 c-24 -49
-65 -75 -140 -89 l-35 -6 -2 83 c-1 90 -26 181 -70 256 -13 24 -23 45 -21 47
1 2 19 8 38 13 52 15 107 14 140 -3z m-1050 -422 c25 -103 45 -192 45 -197 0
-15 -135 -47 -174 -42 -40 6 -75 28 -97 61 -19 28 -54 157 -54 198 0 48 29 96
71 118 31 15 121 43 159 48 3 0 25 -83 50 -186z" />
		<path d="M3675 3826 c-53 -24 -109 -80 -126 -125 -6 -14 -53 -177 -105 -361
-52 -184 -101 -341 -108 -348 -18 -19 -425 -147 -516 -163 -93 -16 -344 -16
-427 0 -34 6 -111 30 -170 53 -194 73 -294 64 -396 -36 -37 -37 -774 -1070
-828 -1160 -11 -19 -23 -60 -26 -90 -6 -56 -6 -56 -61 -86 -51 -28 -64 -30
-154 -30 -102 0 -137 -10 -169 -46 -27 -31 -288 -602 -295 -644 -15 -96 27
-185 103 -216 26 -12 206 -14 977 -14 643 0 954 3 973 11 15 5 41 22 57 37 55
51 56 62 56 427 0 363 0 364 -55 415 -24 23 -36 25 -125 28 l-98 4 -6 28 c-3
16 -37 208 -76 427 -39 219 -78 408 -85 419 -17 27 -47 35 -76 20 -12 -6 -161
-207 -330 -446 -169 -239 -317 -443 -329 -452 -14 -11 -39 -18 -67 -18 -84 0
-140 90 -101 163 10 20 449 642 700 995 66 91 121 158 138 167 49 25 110 18
242 -29 68 -24 157 -49 198 -56 159 -27 446 -10 590 34 242 76 401 132 428
153 18 13 41 41 51 61 10 20 60 186 111 367 51 182 100 340 108 353 19 29 63
52 100 52 43 0 95 -39 109 -83 12 -35 6 -65 -88 -433 -55 -217 -105 -407 -110
-422 -25 -66 -61 -87 -348 -202 -152 -60 -290 -119 -307 -129 -35 -21 -74 -93
-74 -135 0 -16 32 -186 71 -378 39 -192 69 -355 66 -362 -3 -7 -18 -17 -34
-21 -15 -3 -58 -22 -96 -41 -64 -32 -74 -34 -170 -34 -116 0 -153 -14 -184
-72 -16 -30 -18 -64 -18 -368 0 -184 3 -347 7 -362 11 -38 57 -88 95 -104 27
-12 202 -14 981 -14 l949 0 43 23 c64 34 93 92 88 177 -3 59 -16 91 -137 350
-73 157 -139 295 -147 308 -32 49 -71 62 -186 62 -103 0 -111 2 -175 34 -124
62 -239 89 -446 107 -126 10 -338 2 -412 -17 -27 -7 -15 -50 -107 403 -63 312
-63 312 -43 331 11 11 143 68 294 128 246 98 280 114 327 156 28 27 61 67 72
91 35 74 222 829 222 894 -1 75 -25 128 -83 179 -77 68 -172 82 -262 40z
m-1685 -2000 c28 -159 49 -290 48 -291 -2 -2 -37 8 -78 22 -94 31 -255 63
-323 63 -29 0 -58 4 -65 9 -10 6 35 76 169 266 147 207 184 254 190 239 5 -10
31 -149 59 -308z m-222 -352 c162 -33 299 -92 320 -139 35 -76 -158 -165 -419
-196 -188 -22 -446 1 -609 53 -160 51 -208 112 -137 175 18 16 47 35 64 42 28
11 33 10 64 -18 50 -46 106 -64 182 -59 80 5 130 35 190 114 l42 56 113 -6
c63 -3 148 -13 190 -22z m2044 2 c173 -31 318 -101 326 -155 11 -71 -171 -151
-403 -180 -257 -31 -587 12 -732 95 -72 41 -82 86 -30 130 65 55 220 105 387
123 107 12 351 5 452 -13z m-3052 -161 c0 -135 153 -237 435 -292 126 -24 443
-24 575 0 285 52 450 156 450 283 l0 44 55 0 55 0 0 -202 0 -203 -916 3 c-503
1 -913 6 -911 10 2 4 44 94 93 200 l89 192 37 0 c37 0 38 -1 38 -35z m2050 0
c0 -20 6 -51 14 -69 87 -207 664 -312 1104 -200 215 54 342 154 342 268 l0 36
48 0 49 0 92 -196 c50 -109 90 -198 88 -200 -2 -2 -414 -5 -915 -6 l-912 -3 0
196 c0 108 3 199 7 202 3 4 24 7 45 7 37 0 38 -1 38 -35z m-490 -514 c14 -27
13 -84 -2 -99 -17 -17 -1869 -17 -1886 0 -15 15 -16 72 -2 99 10 19 32 19 945
19 913 0 935 0 945 -19z m2298 7 c16 -16 16 -90 0 -106 -9 -9 -233 -12 -945
-12 -911 0 -933 0 -943 19 -15 29 -12 77 6 95 14 14 113 16 943 16 708 0 930
-3 939 -12z" />
		<path d="M1432 1383 c-31 -27 -35 -56 -12 -85 36 -46 114 -41 126 9 10 40 -3
70 -37 82 -43 15 -53 14 -77 -6z" />
		<path d="M3490 1382 c-62 -50 12 -143 87 -109 44 20 43 95 -2 115 -36 17 -59
15 -85 -6z" />
	</g>
</svg>